<svg width="129" height="32" viewBox="0 0 129 32" fill="none" xmlns="http://www.w3.org/2000/svg">
<path d="M14.6135 17.9093L14.8085 17.8343C16.3039 17.2241 17.4641 16.3139 18.2943 15.1036C19.1195 13.8883 19.5346 12.338 19.5346 10.4475V9.88739C19.5346 8.01695 19.1295 6.46658 18.3093 5.23129C17.4941 3.996 16.3339 3.07078 14.8285 2.46563C13.3231 1.86049 11.5427 1.55542 9.48724 1.55542H0V24.7859H4.97117V18.7445H9.59727L15.6137 24.7859H21.4251L14.6135 17.9093ZM4.97117 14.7185V5.79142H10.0124C10.9226 5.79142 11.7128 5.97646 12.3779 6.35155C13.0431 6.72164 13.5632 7.24676 13.9333 7.92692C14.3084 8.60208 14.4934 9.38227 14.4934 10.2725C14.4934 11.1627 14.3084 11.9029 13.9333 12.583C13.5632 13.2582 13.0431 13.7833 12.3779 14.1584C11.7128 14.5285 10.9226 14.7185 10.0124 14.7185H4.97117Z" fill="white"/>
<path d="M42.1452 14.2834C42.1452 12.603 41.7951 11.0327 41.0949 9.57231C40.3948 8.11697 39.3495 6.93669 37.9592 6.03648C36.5739 5.14127 34.8485 4.69116 32.798 4.69116C31.2326 4.69116 29.8573 4.96623 28.667 5.51136C27.4767 6.06149 26.4765 6.79666 25.6713 7.71688C24.8661 8.6421 24.261 9.69234 23.8509 10.8676C23.4458 12.0479 23.2407 13.2682 23.2407 14.5285V15.1936C23.2407 16.4039 23.4458 17.5942 23.8509 18.7645C24.261 19.9298 24.8661 20.985 25.6713 21.9302C26.4765 22.8755 27.4917 23.6306 28.717 24.1908C29.9423 24.7509 31.3726 25.031 33.008 25.031C34.6434 25.031 35.9637 24.7609 37.189 24.2258C38.4143 23.6906 39.4245 22.9305 40.2197 21.9502C41.0099 20.97 41.55 19.8247 41.8301 18.5194H37.3491C37.139 19.2196 36.6589 19.8097 35.9137 20.2848C35.1635 20.765 34.1983 21.005 33.008 21.005C31.8177 21.005 30.8375 20.74 30.0673 20.2148C29.2972 19.6897 28.722 18.9695 28.3519 18.0443C28.1019 17.4342 27.9368 16.764 27.8568 16.0338H42.1452V14.2834ZM27.9418 13.0581C28.0369 12.518 28.1769 12.0229 28.3669 11.5678C28.752 10.6476 29.3172 9.9424 30.0673 9.45229C30.8125 8.96217 31.7227 8.71711 32.798 8.71711C33.8732 8.71711 34.7634 8.95217 35.4736 9.41728C36.1888 9.88239 36.7189 10.5475 37.069 11.4127C37.269 11.9029 37.4091 12.453 37.4941 13.0581H27.9418Z" fill="white"/>
<path d="M53.1029 24.9609C50.4872 24.9609 48.4418 24.4058 46.9614 23.2955C45.4811 22.1853 44.7009 20.6499 44.6309 18.6894H49.0069C49.0769 19.3446 49.437 19.9397 50.0922 20.4748C50.7473 21.01 51.7725 21.28 53.1729 21.28C54.3382 21.28 55.2684 21.07 55.9535 20.6499C56.6437 20.2298 56.9838 19.6597 56.9838 18.9345C56.9838 18.3043 56.7237 17.8042 56.1986 17.4291C55.6735 17.054 54.7833 16.809 53.523 16.694L51.8426 16.5189C49.7171 16.2839 48.0867 15.6787 46.9414 14.6985C45.7961 13.7182 45.226 12.4129 45.226 10.7776C45.226 9.47225 45.5511 8.37199 46.2062 7.48678C46.8614 6.60157 47.7666 5.93141 48.9219 5.4763C50.0771 5.0212 51.4025 4.79614 52.8928 4.79614C55.2284 4.79614 57.1188 5.31126 58.5641 6.33651C60.0095 7.36175 60.7697 8.8671 60.8397 10.8526H56.4637C56.4186 10.1974 56.0886 9.63729 55.4834 9.17218C54.8783 8.70707 54.0031 8.47201 52.8578 8.47201C51.8326 8.47201 51.0374 8.67206 50.4772 9.06715C49.9171 9.46224 49.637 9.97737 49.637 10.6075C49.637 11.2377 49.8671 11.6828 50.3172 12.0078C50.7723 12.3329 51.5125 12.558 52.5427 12.673L54.2231 12.848C56.4637 13.0831 58.2191 13.6982 59.4944 14.7035C60.7647 15.7087 61.3998 17.059 61.3998 18.7644C61.3998 20.0247 61.0547 21.115 60.3696 22.0352C59.6794 22.9554 58.7192 23.6756 57.4789 24.1907C56.2436 24.7058 54.7833 24.9609 53.1029 24.9609Z" fill="white"/>
<path d="M70.5514 8.92711L70.5364 17.5391C70.5364 18.4694 70.7865 19.1895 71.2866 19.6896C71.7917 20.1948 72.5069 20.4448 73.4421 20.4448H76.4178V24.6108H73.6871C71.9367 24.6108 70.4964 24.3808 69.3611 23.9256C68.2309 23.4705 67.3856 22.7004 66.8255 21.6151C66.2654 20.5298 65.9853 19.0645 65.9853 17.2241L66.0003 8.92711H62.9746V5.35626H66.0103L66.0203 0H70.5714L70.5614 5.35626H76.4178V8.92711H70.5514Z" fill="white"/>
<path d="M91.4363 25.031C89.0557 25.031 87.0503 24.5959 85.4149 23.7257C83.7795 22.8555 82.5392 21.6352 81.684 20.0648C80.8338 18.4944 80.4087 16.649 80.4087 14.5335V4.69116H85.3799V14.8036C85.3799 15.9638 85.6149 16.9791 86.08 17.8593C86.5451 18.7395 87.2303 19.4196 88.1255 19.8998C89.0257 20.3799 90.126 20.6199 91.4363 20.6199C92.7466 20.6199 93.8119 20.3799 94.7071 19.8998C95.6073 19.4196 96.2824 18.7445 96.7375 17.8793C97.1927 17.0091 97.4227 15.9838 97.4227 14.8036V4.69116H102.394V14.5385C102.394 16.654 101.979 18.4994 101.149 20.0698C100.318 21.6402 99.0881 22.8605 97.4577 23.7307C95.8223 24.6009 93.8169 25.036 91.4363 25.036V25.031Z" fill="white"/>
<path d="M127.39 10.6575C126.97 9.48222 126.37 8.44698 125.585 7.56177C124.804 6.67156 123.869 5.9864 122.784 5.49628C121.699 5.00617 120.478 4.76111 119.128 4.76111C117.658 4.76111 116.327 5.08118 115.137 5.72133C113.947 6.36649 112.997 7.33672 112.281 8.64703C112.041 9.08713 111.836 9.56224 111.671 10.0774V5.35625H107.82V31.3674H112.686V21.8401C113.362 22.8354 114.212 23.5906 115.222 24.1007C116.402 24.6958 117.703 24.9959 119.128 24.9959C120.478 24.9959 121.704 24.7458 122.804 24.2407C123.899 23.7406 124.839 23.0404 125.62 22.1402C126.405 21.245 127 20.2048 127.405 19.0245C127.815 17.8492 128.02 16.5689 128.02 15.1936V14.4584C128.02 13.1031 127.81 11.8378 127.39 10.6575ZM122.489 17.9742C122.044 18.8994 121.434 19.6146 120.648 20.1297C119.868 20.6399 118.953 20.8999 117.903 20.8999C116.992 20.8999 116.127 20.6899 115.312 20.2698C114.492 19.8497 113.827 19.2545 113.317 18.4843C112.801 17.7142 112.546 16.7789 112.546 15.6837V14.2834C112.546 13.1381 112.796 12.1579 113.297 11.3427C113.802 10.5225 114.452 9.90732 115.257 9.48722C116.062 9.06712 116.942 8.85708 117.903 8.85708C118.953 8.85708 119.868 9.10713 120.648 9.60725C121.434 10.1124 122.044 10.8025 122.489 11.6927C122.929 12.578 123.154 13.6282 123.154 14.8435C123.154 16.0588 122.929 17.054 122.489 17.9742Z" fill="white"/>
</svg>
